# xmcd
#
# Track frame offsets:
# 150
# 4810
# 18363
# 37098
# 52050
# 67254
# 87332
# 93722
# 104089
# 114311
# 118233
# 132698
#
# Disc length: 1855 seconds
#
# Revision: 0
# Processed by: cddbd v1.5.2PL0 Copyright (c) Steve Scherf et al.
# Submitted via: Audion 3.0.2 (http://www.panic.com/audion/)
#
DISCID=b6073d0c
DTITLE=burlespue engine - samurai jaguar
DYEAR=1900
DGENRE=
TTITLE0=yoru nokokusai dorama
TTITLE1=samurai jaguar
TTITLE2=jet sexy beam
TTITLE3=nino and nina
TTITLE4=dice de kese
TTITLE5=bathlibe de steleo
TTITLE6=yoru nokokusai dorama slow ver
TTITLE7=kokusai racer
TTITLE8=pinky gelila plus macime
TTITLE9=jack no tema
TTITLE10=ginza pomard
TTITLE11=hte hawaii
EXTD=
EXTT0=
EXTT1=
EXTT2=
EXTT3=
EXTT4=
EXTT5=
EXTT6=
EXTT7=
EXTT8=
EXTT9=
EXTT10=
EXTT11=
PLAYORDER=
